# xmcd CD database file
#
# Track frame offsets:
#	150
#	2517
#	22800
#	42975
#	62551
#	82951
#	103577
#	124427
#	143927
#	164178
#	183303
#	202578
#	209929
#
# Disc length: 3072 seconds
#
# Revision: 0
# Processed by: cddbd v1.5.1PL2 Copyright (c) Steve Scherf et al.
# Submitted via: CDex 1.51
#
DISCID=b20bfe0d
DTITLE=MARIA - THE BREED
DYEAR=2005
DGENRE=Hip-Hop
TTITLE0=give u
TTITLE1=strawberries 'n' lingerie
TTITLE2=cigga sugga
TTITLE3=slow job
TTITLE4=play the “g” from db,the other groove
TTITLE5=The Stories Of 6:00 AM
TTITLE6=suckers
TTITLE7=“ping ting” from db2,string song
TTITLE8=How many grams？
TTITLE9=Baby,bye
TTITLE10=Clippin Crackers
TTITLE11=what？
TTITLE12=tastes like strawberries 'n' lingerie
EXTD=YEAR: 2005.12.21
EXTT0=
EXTT1=
EXTT2=
EXTT3=
EXTT4=
EXTT5=
EXTT6=
EXTT7=
EXTT8=
EXTT9=
EXTT10=
EXTT11=
EXTT12=
PLAYORDER=
